<?xml version="1.0" standalone="no"?>
<!DOCTYPE svg PUBLIC "-//W3C//DTD SVG 20010904//EN"
 "http://www.w3.org/TR/2001/REC-SVG-20010904/DTD/svg10.dtd">
<svg version="1.0" xmlns="http://www.w3.org/2000/svg"
 width="271.000000pt" height="211.000000pt" viewBox="0 0 271.000000 211.000000"
 preserveAspectRatio="xMidYMid meet">

<g transform="translate(0.000000,211.000000) scale(0.100000,-0.100000)"
fill="#000000" stroke="none">
<path d="M47 2072 c16 -10 -2 -82 -25 -99 -13 -11 -10 -13 25 -13 56 0 71 7
89 42 14 27 14 32 -1 54 -12 19 -24 24 -58 24 -24 0 -37 -4 -30 -8z m67 -24
c12 -20 -6 -66 -29 -75 -23 -8 -24 -3 -12 50 11 48 22 55 41 25z"/>
<path d="M2565 2028 c-64 -37 -55 -110 13 -107 l27 1 -25 7 c-33 9 -38 49 -10
79 21 23 60 30 60 11 0 -5 5 -7 10 -4 33 21 -40 33 -75 13z"/>
<path d="M140 1125 l0 -805 1175 0 1175 0 0 805 0 805 -1175 0 -1175 0 0 -805z
m2340 0 l0 -795 -1165 0 -1165 0 0 795 0 795 1165 0 1165 0 0 -795z"/>
<path d="M105 250 l-39 -40 27 0 c28 0 38 -24 15 -33 -7 -3 3 -6 22 -6 24 -1
31 2 24 9 -6 6 -9 33 -6 60 2 28 3 50 0 50 -2 0 -22 -18 -43 -40z m15 -15 c0
-8 -7 -15 -16 -15 -14 0 -14 3 -4 15 7 8 14 15 16 15 2 0 4 -7 4 -15z"/>
<path d="M2486 274 c16 -7 -3 -85 -24 -101 -13 -11 -7 -13 35 -13 33 0 57 6
67 15 18 18 11 45 -13 46 -11 0 -8 3 7 10 15 5 22 16 20 26 -2 14 -14 18 -53
20 -28 1 -45 0 -39 -3z m67 -11 c9 -8 -12 -33 -28 -33 -8 0 -11 8 -8 20 5 20
23 26 36 13z m-8 -62 c0 -16 -31 -38 -40 -29 -4 4 -4 16 0 28 7 23 40 24 40 1z"/>
<path d="M40 180 c0 -5 5 -10 11 -10 5 0 7 5 4 10 -3 6 -8 10 -11 10 -2 0 -4
-4 -4 -10z"/>
</g>
</svg>
