<?xml version="1.0" standalone="no"?>
<!DOCTYPE svg PUBLIC "-//W3C//DTD SVG 20010904//EN"
 "http://www.w3.org/TR/2001/REC-SVG-20010904/DTD/svg10.dtd">
<svg version="1.0" xmlns="http://www.w3.org/2000/svg"
 width="1200.000000pt" height="1147.000000pt" viewBox="0 0 1200.000000 1147.000000"
 preserveAspectRatio="xMidYMid meet">

<g transform="translate(0.000000,1147.000000) scale(0.100000,-0.100000)"
fill="#000000" stroke="none">
<path d="M5878 11030 c-328 -668 -1661 -3375 -1663 -3378 -1 -1 -922 -137
-2045 -302 -1123 -164 -2044 -301 -2047 -303 -2 -3 661 -651 1474 -1442 813
-790 1479 -1443 1481 -1450 2 -7 -153 -925 -343 -2040 -190 -1115 -344 -2030
-341 -2032 2 -2 824 428 1826 957 1002 528 1828 960 1834 960 7 0 833 -430
1835 -956 1003 -525 1826 -953 1828 -950 4 4 -674 3967 -693 4051 -4 16 303
321 1475 1465 1158 1130 1476 1447 1463 1452 -9 4 -928 138 -2042 298 -1163
168 -2030 296 -2037 303 -6 7 -419 836 -917 1842 -498 1007 -909 1837 -914
1845 -7 11 -52 -70 -174 -320z"/>
</g>
</svg>
